# xmcd
#
# Track frame offsets: 
#        150
#        26373
#        47710
#        70265
#        100986
#        127574
#        148414
#        184294
#        204716
#        231811
#        256326
#        277911
#
# Disc length: 4126 seconds
#
# Revision: 0
# Processed by: cddbd v1.5.2PL0 Copyright (c) Steve Scherf et al.
# Submitted via: ExactAudioCopyFreeDBPlugin 1.0
#
DISCID=ab101c0c
DTITLE=Boo Boo Davis - East St Louis
DYEAR=1999
DGENRE=Blues
TTITLE0=Ain´t Got No Problems
TTITLE1=East St Louis
TTITLE2=Hard Times
TTITLE3=I Had A Dream
TTITLE4=Ice Storm
TTITLE5=Sad Thing
TTITLE6=Somebody Have Mercy
TTITLE7=Talkin´ ´Bout My Dogs
TTITLE8=Walk On Tall
TTITLE9=Walk That Walk
TTITLE10=We´re In Hell
TTITLE11=What Makes A Fool Fall In Love
EXTD=
EXTT0=
EXTT1=
EXTT2=
EXTT3=
EXTT4=
EXTT5=
EXTT6=
EXTT7=
EXTT8=
EXTT9=
EXTT10=
EXTT11=
PLAYORDER=
